<svg xmlns="http://www.w3.org/2000/svg" version="1.1" xmlns:xlink="http://www.w3.org/1999/xlink" xmlns:svgjs="http://svgjs.dev/svgjs" width="1440" height="560" preserveAspectRatio="none" viewBox="0 0 1440 560"><g mask="url(&quot;#SvgjsMask1160&quot;)" fill="none"><path d="M1512 560L0 560 L0 213.32Q98.9 192.22, 120 291.13Q155.68 206.81, 240 242.49Q294.28 224.77, 312 279.06Q379.94 227, 432 294.95Q447.79 238.74, 504 254.52Q552.23 230.75, 576 278.98Q584.23 215.21, 648 223.43Q656.59 160.01, 720 168.6Q785.96 114.56, 840 180.51Q951.08 171.59, 960 282.67Q998.6 201.27, 1080 239.87Q1125.32 213.19, 1152 258.51Q1177.92 164.43, 1272 190.35Q1342.9 141.25, 1392 212.16Q1464.07 164.23, 1512 236.3z" fill="rgba(88, 86, 214, 1)"></path><path d="M1512 560L0 560 L0 365.02Q40.21 285.23, 120 325.44Q159.41 244.85, 240 284.25Q309.29 233.54, 360 302.84Q434.94 305.78, 432 380.73Q418.27 295, 504 281.27Q619.63 276.9, 624 392.54Q626.27 322.81, 696 325.09Q762.73 271.81, 816 338.54Q860.76 263.3, 936 308.06Q988.16 240.22, 1056 292.38Q1105.16 221.54, 1176 270.7Q1236.18 258.88, 1248 319.06Q1289.15 288.21, 1320 329.36Q1393.51 282.87, 1440 356.37Q1487.58 331.95, 1512 379.53z" fill="rgba(101, 99, 209, 1)"></path><path d="M1464 560L0 560 L0 472.33Q45.72 446.05, 72 491.77Q87.46 435.23, 144 450.68Q141.85 376.53, 216 374.39Q305.26 391.65, 288 480.91Q350.79 423.7, 408 486.48Q448.8 407.28, 528 448.09Q559.14 359.23, 648 390.37Q694.15 364.52, 720 410.68Q818.81 389.49, 840 488.3Q869.07 445.37, 912 474.44Q933.68 376.12, 1032 397.8Q1055.34 349.14, 1104 372.48Q1194.92 343.4, 1224 434.32Q1311.75 402.07, 1344 489.82Q1357.96 383.78, 1464 397.74z" fill="rgba(117, 116, 187, 1)"></path><path d="M1464 560L0 560 L0 590.98Q51.06 522.04, 120 573.09Q171.96 505.05, 240 557.01Q256.24 501.25, 312 517.48Q339.76 473.24, 384 501Q460.67 457.67, 504 534.34Q552.33 510.67, 576 559Q607.55 470.55, 696 502.1Q745.6 479.7, 768 529.31Q856.57 497.88, 888 586.45Q911.21 537.66, 960 560.87Q982.63 463.5, 1080 486.12Q1149.41 435.53, 1200 504.94Q1257.36 490.3, 1272 547.66Q1291.94 495.6, 1344 515.54Q1411.55 463.09, 1464 530.63z" fill="rgba(144, 143, 198, 1)"></path></g><defs><mask id="SvgjsMask1160"><rect width="1440" height="560" fill="#ffffff"></rect></mask></defs></svg>