<svg xmlns="http://www.w3.org/2000/svg" version="1.1" xmlns:xlink="http://www.w3.org/1999/xlink" xmlns:svgjs="http://svgjs.dev/svgjs" width="1920" height="1080" preserveAspectRatio="none" viewBox="0 0 1920 1080"><g mask="url(&quot;#SvgjsMask1155&quot;)" fill="none"><path d="M 0,202 C 55,188.4 165,109.2 275,134 C 385,158.8 440,339 550,326 C 660,313 715,82.8 825,69 C 935,55.2 990,245 1100,257 C 1210,269 1265,110.8 1375,129 C 1485,147.2 1541,340.4 1650,348 C 1759,355.6 1866,203.2 1920,167L1920 1080L0 1080z" fill="rgba(223, 204, 251, 1)"></path><path d="M 0,640 C 64,614 192,499.6 320,510 C 448,520.4 512,717.6 640,692 C 768,666.4 832,385 960,382 C 1088,379 1152,655.6 1280,677 C 1408,698.4 1472,507.2 1600,489 C 1728,470.8 1856,566.6 1920,586L1920 1080L0 1080z" fill="rgba(190, 173, 250, 1)"></path><path d="M 0,785 C 76.8,821.8 230.4,967.4 384,969 C 537.6,970.6 614.4,794.2 768,793 C 921.6,791.8 998.4,959 1152,963 C 1305.6,967 1382.4,819.8 1536,813 C 1689.6,806.2 1843.2,905.8 1920,929L1920 1080L0 1080z" fill="rgba(223, 204, 251, 1)"></path></g><defs><mask id="SvgjsMask1155"><rect width="1920" height="1080" fill="#ffffff"></rect></mask></defs></svg>